<svg xmlns="http://www.w3.org/2000/svg" width="30" height="30" viewBox="0 0 30 30">
  <g id="Group_6025" data-name="Group 6025" transform="translate(-327 -181)">
    <path id="Rectangle_2988" data-name="Rectangle 2988" d="M0,0H20A10,10,0,0,1,30,10V30a0,0,0,0,1,0,0H10A10,10,0,0,1,0,20V0A0,0,0,0,1,0,0Z" transform="translate(327 181)" fill="#f26e96" opacity="0.26"/>
    <g id="noun_Info_1325070" transform="translate(314.185 187.099)">
      <path id="Path_2151" data-name="Path 2151" d="M33.315,6h-.708c0,.028,0,.056,0,.085a1.662,1.662,0,0,1-.069.471h.772a.752.752,0,0,1,.758.762V21.636a.767.767,0,0,1-.758.774h-11a.767.767,0,0,1-.758-.774V7.318a.752.752,0,0,1,.758-.762h6.78a1.657,1.657,0,0,1-.028-.309A1.548,1.548,0,0,1,29.088,6H22.314A1.311,1.311,0,0,0,21,7.318V21.636a1.322,1.322,0,0,0,1.314,1.33h11a1.322,1.322,0,0,0,1.314-1.33V7.318A1.311,1.311,0,0,0,33.315,6Z" transform="translate(0 -5.166)" fill="#575757"/>
      <path id="Path_2152" data-name="Path 2152" d="M55.888,4.375c.095-.243-.029-.386-.134-.365-.486.1-.782.744-1.023.744a.189.189,0,0,1-.175-.176c0-.244.231-.378.405-.554a2.975,2.975,0,0,1,2.016-.906c.577,0,1.2.352.712,1.663L54.86,12.3a2.587,2.587,0,0,0-.228.757.17.17,0,0,0,.161.189c.4,0,.684-.649.872-.649a.2.2,0,0,1,.161.2,2.765,2.765,0,0,1-2.471,1.569c-.484,0-.82-.229-.82-.744a6.909,6.909,0,0,1,.551-1.988Zm1.1-3.294A1.1,1.1,0,0,1,58.092,0a.881.881,0,0,1,.927.919A1.09,1.09,0,0,1,57.9,2,.863.863,0,0,1,56.99,1.082Z" transform="translate(-27.149)" fill="#575757"/>
      <path id="Path_2153" data-name="Path 2153" d="M96.53,30H95.116a2.994,2.994,0,0,1-.116.556h1.53a.278.278,0,0,0,0-.556Z" transform="translate(-63.709 -25.828)" fill="#575757"/>
      <path id="Path_2154" data-name="Path 2154" d="M36.172,30.406a.9.9,0,0,1,.1-.406H32.278a.278.278,0,1,0,0,.556h3.911A.706.706,0,0,1,36.172,30.406Z" transform="translate(-9.47 -25.828)" fill="#575757"/>
      <path id="Path_2155" data-name="Path 2155" d="M36.728,44h-4.45a.278.278,0,0,0,0,.556h4.236Z" transform="translate(-9.47 -37.881)" fill="#575757"/>
      <path id="Path_2156" data-name="Path 2156" d="M92.225,44H90.209L90,44.556h2.225a.278.278,0,0,0,0-.556Z" transform="translate(-59.404 -37.881)" fill="#575757"/>
      <path id="Path_2157" data-name="Path 2157" d="M36.033,58H32.278a.278.278,0,1,0,0,.556h3.54Z" transform="translate(-9.47 -49.934)" fill="#575757"/>
      <path id="Path_2158" data-name="Path 2158" d="M87.487,58H84.705l-.209.556h2.991a.278.278,0,1,0,0-.556Z" transform="translate(-54.665 -49.934)" fill="#575757"/>
      <path id="Path_2159" data-name="Path 2159" d="M83.182,72H79.705l-.209.556h3.686a.278.278,0,1,0,0-.556Z" transform="translate(-50.361 -61.987)" fill="#575757"/>
      <path id="Path_2160" data-name="Path 2160" d="M35.274,72h-3a.278.278,0,1,0,0,.556H35.06Z" transform="translate(-9.47 -61.987)" fill="#575757"/>
      <path id="Path_2161" data-name="Path 2161" d="M34.5,86H32.278a.278.278,0,1,0,0,.556h2.04Q34.4,86.3,34.5,86Z" transform="translate(-9.47 -74.04)" fill="#575757"/>
      <path id="Path_2162" data-name="Path 2162" d="M79.656,86h-4.22l-.036.1a.667.667,0,0,1,.118-.01.729.729,0,0,1,.661.472h3.477a.278.278,0,0,0,0-.557Z" transform="translate(-46.834 -74.04)" fill="#575757"/>
      <path id="Path_2163" data-name="Path 2163" d="M34.116,100H32.278a.278.278,0,0,0,0,.556h2.086A1.216,1.216,0,0,1,34.116,100Z" transform="translate(-9.47 -86.093)" fill="#575757"/>
      <path id="Path_2164" data-name="Path 2164" d="M76.388,100H72.354a3.81,3.81,0,0,1-.75.556h4.784a.278.278,0,0,0,0-.556Z" transform="translate(-43.566 -86.093)" fill="#575757"/>
    </g>
  </g>
</svg>
