<svg xmlns="http://www.w3.org/2000/svg" width="21.252" height="21" viewBox="0 0 21.252 21">
  <g id="noun_favourite_692233" transform="translate(-1.861 -2.5)">
    <g id="Group_3660" data-name="Group 3660" transform="translate(1.861 2.5)">
      <path id="Path_2258" data-name="Path 2258" d="M22.8,7.225,20.067,3.13a1.5,1.5,0,0,0-1.26-.63H6.207a1.375,1.375,0,0,0-1.26.63L2.112,7.225A1.9,1.9,0,0,0,2.007,8.9a1.639,1.639,0,0,0,1.365.84H4.527v12.18A1.615,1.615,0,0,0,6.1,23.5h6.615a.525.525,0,0,0,0-1.05H9.147V16.78a.5.5,0,0,1,.525-.525h2.31a.525.525,0,1,0,0-1.05H9.672A1.615,1.615,0,0,0,8.1,16.78v5.67H6.207a.5.5,0,0,1-.525-.525V9.745h13.65V12.37a.525.525,0,1,0,1.05,0V9.745h1.155A1.407,1.407,0,0,0,22.9,8.9,1.9,1.9,0,0,0,22.8,7.225Zm-.84,1.155c0,.105-.21.315-.525.315H3.372c-.315,0-.42-.21-.42-.315s-.1-.315,0-.525L5.682,3.76c.21-.105.315-.21.525-.21H18.7a.546.546,0,0,1,.42.21l2.835,4.1C22.062,8.065,21.957,8.275,21.957,8.38Z" transform="translate(-1.861 -2.5)" fill="#989898"/>
    </g>
    <g id="Group_3661" data-name="Group 3661" transform="translate(9.252 12.895)">
      <path id="Path_2259" data-name="Path 2259" d="M13.52,13.45h-4.1a.525.525,0,0,1,0-1.05h4.1a.525.525,0,0,1,0,1.05Z" transform="translate(-8.9 -12.4)" fill="#989898"/>
    </g>
    <g id="Group_3662" data-name="Group 3662" transform="translate(10.827 10.795)">
      <path id="Path_2260" data-name="Path 2260" d="M13.025,11.45h-2.1a.525.525,0,1,1,0-1.05h2.1a.525.525,0,1,1,0,1.05Z" transform="translate(-10.4 -10.4)" fill="#989898"/>
    </g>
    <g id="Group_3663" data-name="Group 3663" transform="translate(13.032 13.42)">
      <path id="Path_2261" data-name="Path 2261" d="M17.54,22.98a5.041,5.041,0,0,1-5.04-5.04,5.04,5.04,0,1,1,5.04,5.04Zm0-9.03a3.99,3.99,0,1,0,3.99,3.99A3.988,3.988,0,0,0,17.54,13.95Z" transform="translate(-12.5 -12.9)" fill="#989898"/>
    </g>
  </g>
</svg>
