<svg xmlns="http://www.w3.org/2000/svg" width="30" height="30" viewBox="0 0 30 30">
  <g id="Group_6027" data-name="Group 6027" transform="translate(-327 -272)">
    <path id="Rectangle_2990" data-name="Rectangle 2990" d="M0,0H20A10,10,0,0,1,30,10V30a0,0,0,0,1,0,0H10A10,10,0,0,1,0,20V0A0,0,0,0,1,0,0Z" transform="translate(327 272)" fill="#0eb195" opacity="0.29"/>
    <g id="noun_contact_us_451544" data-name="noun_contact us_451544" transform="translate(315.055 258.608)">
      <path id="Path_2170" data-name="Path 2170" d="M20.535,32.616a13.656,13.656,0,0,0,4.5,3.512,7.462,7.462,0,0,0,2.529.759h.2a2.232,2.232,0,0,0,1.686-.731l.028-.028a4.292,4.292,0,0,1,.506-.506l.365-.365a1.41,1.41,0,0,0,0-2.051l-1.574-1.574a1.38,1.38,0,0,0-1.012-.478,1.457,1.457,0,0,0-1.012.45l-.9.9-.169-.084a2.611,2.611,0,0,1-.281-.14,9.7,9.7,0,0,1-2.332-2.135,5.1,5.1,0,0,1-.731-1.152c.225-.2.421-.421.618-.618l.253-.253a1.37,1.37,0,0,0,0-2.079l-.787-.787a2.534,2.534,0,0,1-.253-.281l-.534-.534a1.457,1.457,0,0,0-1.012-.45,1.392,1.392,0,0,0-1.012.45l-.983.983a2.26,2.26,0,0,0-.646,1.377,5.118,5.118,0,0,0,.365,2.135A11.5,11.5,0,0,0,20.535,32.616Zm-1.658-5.732a1.186,1.186,0,0,1,.393-.815l.955-.955a.589.589,0,0,1,.393-.2.537.537,0,0,1,.393.2l.506.506a2.65,2.65,0,0,0,.281.281l.787.787a.66.66,0,0,1,.2.393.589.589,0,0,1-.2.393l-.253.253-.7.7-.028.028a.615.615,0,0,0-.169.7v.028a6.485,6.485,0,0,0,.927,1.517,10.421,10.421,0,0,0,2.557,2.332,2.322,2.322,0,0,0,.365.2,2.611,2.611,0,0,1,.281.14l.028.028a.645.645,0,0,0,.787-.14l.983-.983a.464.464,0,0,1,.759,0l1.574,1.574a.532.532,0,0,1,0,.815L29.358,35c-.2.169-.365.365-.562.562a1.336,1.336,0,0,1-1.012.421h-.14a5.922,5.922,0,0,1-2.192-.674,12.792,12.792,0,0,1-4.187-3.288,12.188,12.188,0,0,1-2.051-3.4A3.481,3.481,0,0,1,18.877,26.883Zm17.112-1.911c0,2.754-2.529,5.03-5.648,5.03a6.975,6.975,0,0,1-1.517-.169.446.446,0,1,1,.2-.871,5.1,5.1,0,0,0,1.293.169c2.613,0,4.749-1.855,4.749-4.1,0-2.276-2.135-4.1-4.749-4.1s-4.749,1.855-4.749,4.1a3.713,3.713,0,0,0,1.04,2.557.44.44,0,0,1,.084.45,2.578,2.578,0,0,1-.393.731,2.346,2.346,0,0,0,.983-.309.448.448,0,1,1,.478.759,3.522,3.522,0,0,1-2.276.421.6.6,0,0,1-.506-.45.589.589,0,0,1,.253-.618,1.432,1.432,0,0,0,.534-.618A4.59,4.59,0,0,1,24.693,25c0-2.754,2.529-5,5.648-5C33.432,19.971,35.989,22.219,35.989,24.973Zm-5.676.478a.478.478,0,1,1,.478-.478A.457.457,0,0,1,30.313,25.45Zm1.714,0a.478.478,0,1,1,.478-.478A.474.474,0,0,1,32.027,25.45Zm-3.4,0a.478.478,0,1,1,.478-.478A.474.474,0,0,1,28.627,25.45Z" fill="#575757"/>
    </g>
  </g>
</svg>
