<svg xmlns="http://www.w3.org/2000/svg" width="30" height="30" viewBox="0 0 30 30">
  <g id="Group_6031" data-name="Group 6031" transform="translate(-327 -272)">
    <path id="Rectangle_2990" data-name="Rectangle 2990" d="M0,0H20A10,10,0,0,1,30,10V30a0,0,0,0,1,0,0H10A10,10,0,0,1,0,20V0A0,0,0,0,1,0,0Z" transform="translate(327 272)" fill="#ff0c0c" opacity="0.22"/>
    <g id="noun_delivery_1379469" transform="translate(328.968 263.615)">
      <g id="Group" transform="translate(4.16 17.56)">
        <path id="Compound_Path" data-name="Compound Path" d="M28.92,24.158a.387.387,0,0,0-.081-.238l-1.123-1.436h0L26.47,19.871a2.334,2.334,0,0,0-2.1-1.324H22.1v-.6a.387.387,0,0,0-.387-.387H13.441a.387.387,0,1,0,0,.774h7.889v4.332a.387.387,0,0,0,.387.387h5.468l.968,1.237v3.3h-1.49a2.15,2.15,0,0,0-4.235,0h-3.84a2.15,2.15,0,0,0-4.235,0H13.247a.387.387,0,0,0,0,.774h1.109a2.152,2.152,0,0,0,4.231,0h3.836a2.152,2.152,0,0,0,4.231,0h1.492a.774.774,0,0,0,.774-.774ZM22.1,19.319H24.38a1.548,1.548,0,0,1,1.4.883l.993,2.083H22.1ZM16.47,29.351a1.38,1.38,0,1,1,1.378-1.378A1.38,1.38,0,0,1,16.47,29.351Zm8.069,0a1.38,1.38,0,1,1,1.38-1.378A1.38,1.38,0,0,1,24.538,29.351Z" transform="translate(-11.176 -17.56)" fill="#575757"/>
        <path id="Path" d="M12.063,54.387A.387.387,0,0,0,11.676,54H9.547a.387.387,0,0,0,0,.774h2.129A.387.387,0,0,0,12.063,54.387Z" transform="translate(-8.192 -46.947)" fill="#575757"/>
        <path id="Path-2" data-name="Path" d="M4.547,42.774H9A.387.387,0,0,0,9,42H4.547a.387.387,0,0,0,0,.774Z" transform="translate(-4.16 -37.27)" fill="#575757"/>
        <path id="Path-3" data-name="Path" d="M9.16,30.387a.387.387,0,0,0,.387.387H14A.387.387,0,0,0,14,30H9.547A.387.387,0,0,0,9.16,30.387Z" transform="translate(-8.192 -27.592)" fill="#575757"/>
      </g>
    </g>
  </g>
</svg>
