<svg xmlns="http://www.w3.org/2000/svg" width="23.96" height="24.02" viewBox="0 0 23.96 24.02">
  <g id="noun_Home_2853554" transform="translate(-183.049 110.998)">
    <g id="Layer_2" data-name="Layer 2" transform="translate(183.049 -110.998)">
      <path id="Path_2256" data-name="Path 2256" d="M24.812,12.81a1.2,1.2,0,0,1-.733-.252L14,4.726,3.924,12.557a1.2,1.2,0,0,1-1.465-1.9l10.81-8.408a1.2,1.2,0,0,1,1.465,0l10.81,8.408a1.2,1.2,0,0,1-.733,2.15Z" transform="translate(-2.049 -2.002)" fill="#989898"/>
      <path id="Path_2257" data-name="Path 2257" d="M18.212,24.011H8.6a3.6,3.6,0,0,1-3.6-3.6V13.2a1.2,1.2,0,1,1,2.4,0v7.207a1.2,1.2,0,0,0,1.2,1.2h9.609a1.2,1.2,0,0,0,1.2-1.2V13.2a1.2,1.2,0,1,1,2.4,0v7.207A3.6,3.6,0,0,1,18.212,24.011Z" transform="translate(-1.455 0.008)" fill="#989898"/>
    </g>
  </g>
</svg>
