<svg xmlns="http://www.w3.org/2000/svg" width="30" height="30" viewBox="0 0 30 30">
  <g id="Group_6026" data-name="Group 6026" transform="translate(-327 -228)">
    <path id="Rectangle_2989" data-name="Rectangle 2989" d="M0,0H20A10,10,0,0,1,30,10V30a0,0,0,0,1,0,0H10A10,10,0,0,1,0,20V0A0,0,0,0,1,0,0Z" transform="translate(327 228)" fill="#34c961" opacity="0.26"/>
    <g id="Group_6023" data-name="Group 6023" transform="translate(325.511 226.901)">
      <path id="Path_5409" data-name="Path 5409" d="M7.68,12.152l1.268,1.014a.362.362,0,0,0,.588-.283V11.8h1.54l-.015.02A6.163,6.163,0,0,0,13.681,21.1l.029.011a6.147,6.147,0,0,0,2.345.463,6.259,6.259,0,0,0,1.087-.1v2.27A1.449,1.449,0,0,0,18.592,25.2h5.071a1.449,1.449,0,0,0,1.449-1.449V20.462a1.8,1.8,0,0,0-.68-1.415l-1.268-1.014a.362.362,0,0,0-.588.283V19.4H20.742c.1-.118.2-.236.294-.362l0-.005,0,0A6.158,6.158,0,0,0,16.056,9.26a6.259,6.259,0,0,0-1.087.1V7.449A1.449,1.449,0,0,0,13.52,6H8.449A1.449,1.449,0,0,0,7,7.449v3.288A1.8,1.8,0,0,0,7.68,12.152Zm15.259,7.976a.362.362,0,0,0,.362-.362v-.7l.679.543a1.082,1.082,0,0,1,.408.849V23.75a.724.724,0,0,1-.724.724H18.592a.724.724,0,0,1-.724-.724v-2.9a.724.724,0,0,1,.724-.724ZM19.057,19.4q.089-.319.162-.639.456.105.913.244-.183.207-.387.4ZM20.6,18.394q-.618-.2-1.235-.34A14.7,14.7,0,0,0,19.6,15.78h1.879a5.389,5.389,0,0,1-.876,2.614Zm.007-5.941a5.375,5.375,0,0,1,.87,2.6H19.6a14.632,14.632,0,0,0-.232-2.265c.418-.095.833-.207,1.241-.338Zm-.465-.616q-.456.137-.92.243-.15-.663-.368-1.319A5.417,5.417,0,0,1,20.141,11.837ZM16.418,10a5.394,5.394,0,0,1,1.506.321,13.467,13.467,0,0,1,.587,1.906,14.059,14.059,0,0,1-2.093.211Zm0,3.164a14.771,14.771,0,0,0,2.237-.226,13.854,13.854,0,0,1,.217,2.119H16.418Zm0,2.618h2.454a13.926,13.926,0,0,1-.217,2.126,14.722,14.722,0,0,0-2.236-.231Zm0,2.619a14.051,14.051,0,0,1,2.091.217q-.095.412-.214.818a1.447,1.447,0,0,0-1.141,1.3,5.364,5.364,0,0,1-.736.1Zm-4.912-5.946q.586.188,1.17.322a14.743,14.743,0,0,0-.233,2.282H10.636A5.383,5.383,0,0,1,11.506,12.453Zm.464-.616.038-.041h.875c-.023.09-.043.181-.064.269q-.422-.1-.849-.227ZM11.5,18.372a5.377,5.377,0,0,1-.863-2.591h1.806a14.707,14.707,0,0,0,.233,2.273q-.585.134-1.175.319Zm.464.616q.43-.128.856-.226.145.636.347,1.255a5.465,5.465,0,0,1-1.2-1.028Zm3.731,1.847a5.506,5.506,0,0,1-1.594-.353,13.543,13.543,0,0,1-.572-1.868,13.671,13.671,0,0,1,2.164-.218Zm0-3.163a15.073,15.073,0,0,0-2.309.233,13.958,13.958,0,0,1-.217-2.126h2.525Zm0-2.616H13.167a14.01,14.01,0,0,1,.217-2.132,14.772,14.772,0,0,0,2.309.239Zm-.724-4.709V10.1a5.43,5.43,0,0,1,.724-.1v2.437a14.062,14.062,0,0,1-2.165-.223q.05-.215.109-.43a1.446,1.446,0,0,0,1.332-1.437Zm-7.245-2.9a.724.724,0,0,1,.724-.724H13.52a.724.724,0,0,1,.724.724v2.9a.724.724,0,0,1-.724.724H9.173a.362.362,0,0,0-.362.362v.7l-.679-.543a1.082,1.082,0,0,1-.408-.849Z" fill="#575757"/>
      <circle id="Ellipse_433" data-name="Ellipse 433" cx="0.543" cy="0.543" r="0.543" transform="translate(10.441 8.173)" fill="#575757"/>
      <circle id="Ellipse_434" data-name="Ellipse 434" cx="0.473" cy="0.473" r="0.473" transform="translate(12.27 8.5)" fill="#575757"/>
      <circle id="Ellipse_435" data-name="Ellipse 435" cx="0.473" cy="0.473" r="0.473" transform="translate(8.484 8.5)" fill="#575757"/>
      <circle id="Ellipse_436" data-name="Ellipse 436" cx="0.543" cy="0.543" r="0.543" transform="translate(20.584 21.938)" fill="#575757"/>
      <circle id="Ellipse_437" data-name="Ellipse 437" cx="0.473" cy="0.473" r="0.473" transform="translate(22.682 21.752)" fill="#575757"/>
      <circle id="Ellipse_438" data-name="Ellipse 438" cx="0.473" cy="0.473" r="0.473" transform="translate(18.896 21.752)" fill="#575757"/>
    </g>
  </g>
</svg>
