<svg xmlns="http://www.w3.org/2000/svg" width="30" height="30" viewBox="0 0 30 30">
  <g id="Group_6032" data-name="Group 6032" transform="translate(-327 -272)">
    <path id="Rectangle_2990" data-name="Rectangle 2990" d="M0,0H20A10,10,0,0,1,30,10V30a0,0,0,0,1,0,0H10A10,10,0,0,1,0,20V0A0,0,0,0,1,0,0Z" transform="translate(327 272)" fill="#34c961" opacity="0.36"/>
    <g id="noun_sign_out_2121997" data-name="noun_sign out_2121997" transform="translate(268.352 174.486)">
      <g id="Group_6037" data-name="Group 6037" transform="translate(68.591 105.656)">
        <g id="Group_6034" data-name="Group 6034" transform="translate(3.197 2.07)">
          <g id="Group_6033" data-name="Group 6033">
            <path id="Path_5412" data-name="Path 5412" d="M278.024,245.6c0-.485.013-.972,0-1.457a.563.563,0,0,0-.556-.559c-.033,0-.066,0-.1,0h-4.445c-.017,0-.036,0-.053,0s-.009,0-.013,0,.068.027.016,0c.013.006.055.038.017.008.006,0,.053.049.016.011-.013-.013-.038-.046.011.016-.009-.011-.028-.06.008.017-.024-.052,0,.027,0,.016a.206.206,0,0,0,0-.044v-3.539a.127.127,0,0,0,0-.035h0c0-.014,0,0-.008.041.006-.025.017-.036-.013.016.024-.041-.016.011-.016.013s.033-.027.028-.028-.063.047-.013.016c-.006,0-.068.028-.016.013-.041,0-.053.008-.041.008h0c.011.009.071,0,.085,0h4.23c.1,0,.2,0,.3,0a.565.565,0,0,0,.554-.57c0-.1,0-.2,0-.3V238.1c0-.008.02.022,0-.02l0,.046c.008-.025.006-.024,0,0-.024.049.028-.011-.014.022s-.006.006,0,0c.03-.025-.053.041-.022.017.009-.006.046-.031,0,0s.022.006-.028.008-.011,0,0,0c.041,0-.071-.014-.03,0s-.063-.036-.016-.006-.061-.053-.02-.017c.259.224.529.439.793.658l1.516,1.259,1.483,1.232c.237.2.482.388.713.592l.025.024c.031.027-.036-.047-.014-.014s-.022-.058-.011-.02,0-.068,0-.025.022-.068,0-.016c.031-.078.019-.035.008-.02.049-.063.019-.024,0-.008a.019.019,0,0,0-.008.008l-.006,0c-.027.024-.053.044-.08.066l-.389.323-1.388,1.154-1.571,1.306-1,.833-.072.06,0,0,.047-.036s-.033.019-.033.02c0-.019.066-.024.024-.013.08-.017.05,0,.022-.006s.071.014.031,0,.061.033.027.013c-.013-.006-.041-.03,0,0s.008,0,0,0c-.027-.028.039.053.017.02s.02.063.011.025,0,.08,0,.011a.314.314,0,0,0-.628,0,.567.567,0,0,0,.264.471.561.561,0,0,0,.545.02.875.875,0,0,0,.159-.116l.33-.275,1.347-1.119,1.614-1.34,1.08-.9.1-.078a.555.555,0,0,0,.177-.54.7.7,0,0,0-.3-.4q-.56-.466-1.119-.931l-1.618-1.345q-.659-.549-1.317-1.1c-.1-.083-.2-.168-.3-.251a.628.628,0,0,0-.374-.166.56.56,0,0,0-.579.56c-.006.262,0,.524,0,.786v.628a.233.233,0,0,0,0,.033s0,.006,0,.006v0c.008-.044.011-.053,0-.03s0,.014.014-.025c-.024.041.016-.011.016-.013s-.025.031-.028.028.053-.039.013-.016c.05-.03.041-.019.016-.013.119-.033.046,0,.036-.008a.151.151,0,0,0-.038,0h-4.473c-.033,0-.066,0-.1,0a.566.566,0,0,0-.556.557c0,.141,0,.284,0,.425v2.844a2.734,2.734,0,0,0,.013.454.559.559,0,0,0,.552.449H277.3c.052,0,.1,0,.154,0a.088.088,0,0,0,.02,0c-.009.009-.071-.027-.02,0-.078-.036-.028-.017-.017-.008-.06-.049-.027-.024-.016-.011.038.039-.006-.009-.011-.016.031.038,0-.006-.008-.017.024.052-.011-.009,0-.02s0,0,0,0a.354.354,0,0,0,0,.091V245.6a.317.317,0,0,0,.314.314A.312.312,0,0,0,278.024,245.6Z" transform="translate(-272.3 -237.54)" fill="#464646"/>
          </g>
        </g>
        <g id="Group_6036" data-name="Group 6036" transform="translate(0 0)">
          <g id="Group_6035" data-name="Group 6035">
            <path id="Path_5413" data-name="Path 5413" d="M76.1,117.786H70.324c-.022,0-.044,0-.066,0s-.05,0-.075-.006c-.074-.008.041.008-.013,0a2.848,2.848,0,0,1-.275-.075c-.035-.011.03.011.027.013s-.024-.011-.028-.013l-.066-.031a1.23,1.23,0,0,1-.124-.074l-.05-.035c-.047-.033.042.036,0,0s-.072-.063-.107-.1-.061-.064-.089-.1c-.046-.053.024.036-.008-.009-.014-.02-.028-.039-.041-.06a1.235,1.235,0,0,1-.067-.116l-.028-.056a.138.138,0,0,1-.017-.038c0,.009.024.061.008.017a2.087,2.087,0,0,1-.074-.275c-.008-.035,0,.03,0,.03s0-.022,0-.031c0-.025,0-.05-.006-.075s0-.044,0-.066v-9.3c0-.033,0-.066,0-.1s0-.042.006-.064,0,.031,0,.03.008-.047.009-.053c.009-.046.02-.089.033-.133.006-.02.013-.041.019-.06s.022-.085.014-.041.011-.024.019-.038.019-.038.028-.055c.024-.042.049-.083.075-.124l.024-.035c-.027.039.013-.016.02-.024.031-.036.064-.071.1-.105.019-.017.077-.088.1-.088,0,0-.052.038-.022.017l.025-.019c.022-.016.046-.031.069-.046s.077-.046.118-.066l.057-.027c.031-.016-.027.013-.027.011s.035-.013.039-.014a1.254,1.254,0,0,1,.13-.041l.072-.017c.014,0,.091-.014.042-.008s.028,0,.044,0,.044,0,.066,0H76.1a.314.314,0,0,0,0-.628H71.012c-.228,0-.455,0-.683,0a1.753,1.753,0,0,0-1.7,1.358,3.21,3.21,0,0,0-.041.661v8.963a1.776,1.776,0,0,0,.786,1.5,1.729,1.729,0,0,0,.954.283H76.1a.317.317,0,0,0,.314-.314.326.326,0,0,0-.317-.317Z" transform="translate(-68.591 -105.656)" fill="#464646"/>
          </g>
        </g>
      </g>
    </g>
  </g>
</svg>
