<svg xmlns="http://www.w3.org/2000/svg" width="30" height="30" viewBox="0 0 30 30">
  <g id="Group_6027" data-name="Group 6027" transform="translate(-327 -272)">
    <path id="Rectangle_2990" data-name="Rectangle 2990" d="M0,0H20A10,10,0,0,1,30,10V30a0,0,0,0,1,0,0H10A10,10,0,0,1,0,20V0A0,0,0,0,1,0,0Z" transform="translate(327 272)" fill="#f15921" opacity="0.21"/>
    <g id="noun_notification_1279343" transform="translate(423.655 284.71)">
      <path id="Path_5410" data-name="Path 5410" d="M17.437,26.256h3.2a2.751,2.751,0,0,0,5.431,0h3.2a1.749,1.749,0,0,0,.707-3.347l-.977-.433v-3.4a5.824,5.824,0,0,0-3.463-5.311v-.3a2.178,2.178,0,1,0-4.356,0v.277a5.652,5.652,0,0,0-3.463,5.206v3.526l-.977.433a1.749,1.749,0,0,0,.707,3.347Zm5.911,1.417a1.863,1.863,0,0,1-1.805-1.415h3.611A1.863,1.863,0,0,1,23.348,27.673Zm0-15.489a1.285,1.285,0,0,1,1.285,1.272,5.382,5.382,0,0,0-1.08-.15,5.675,5.675,0,0,0-1.491.143,1.285,1.285,0,0,1,1.285-1.267ZM17.1,23.721l1.243-.549a.446.446,0,0,0,.266-.408V18.951a4.749,4.749,0,0,1,4.74-4.749h.174A4.853,4.853,0,0,1,28.1,19.071v3.7a.446.446,0,0,0,.266.408l1.234.547a.857.857,0,0,1-.346,1.64H17.424a.857.857,0,0,1-.324-1.64Z" transform="translate(-105.348 -17.928)" fill="#575757"/>
    </g>
  </g>
</svg>
