<svg xmlns="http://www.w3.org/2000/svg" width="30" height="30" viewBox="0 0 30 30">
  <g id="Group_6030" data-name="Group 6030" transform="translate(-327 -272)">
    <path id="Rectangle_2990" data-name="Rectangle 2990" d="M0,0H20A10,10,0,0,1,30,10V30a0,0,0,0,1,0,0H10A10,10,0,0,1,0,20V0A0,0,0,0,1,0,0Z" transform="translate(327 272)" fill="#3b32ae" opacity="0.22"/>
    <g id="noun_Share_302907" transform="translate(328.043 274.638)">
      <path id="Path_2172" data-name="Path 2172" d="M18.808,14.911A2.906,2.906,0,0,0,16.3,16.354l-4.51-2.6a2.9,2.9,0,0,0,0-2.23l4.456-2.573a2.969,2.969,0,1,0-.268-.715L11.41,10.87a2.908,2.908,0,1,0,0,3.531l4.595,2.653a2.906,2.906,0,1,0,2.8-2.143Zm0-9.492a2.154,2.154,0,1,1-2.154,2.154A2.157,2.157,0,0,1,18.808,5.419Zm-9.7,9.371a2.154,2.154,0,1,1,2.154-2.154A2.157,2.157,0,0,1,9.106,14.79Zm9.7,5.183a2.154,2.154,0,1,1,2.154-2.154A2.157,2.157,0,0,1,18.808,19.973Z" fill="#575757"/>
    </g>
  </g>
</svg>
